<svg id="logo" xmlns="http://www.w3.org/2000/svg" viewBox="0 0 205.9 215" title="GreyCat">
  <path fill="#77777A" d="M203.5,110.7c0-0.1,0-0.1,0-0.2c0-0.1,0-0.2,0-0.3c0,0,0-0.1,0-0.1l-11.8-45.2l11.7-33.5
		c0.1-0.2,0.1-0.5,0.1-0.7c0-0.1,0-0.1,0-0.1c0-0.3,0-0.5-0.1-0.8c0,0,0,0,0,0l-8.2-26.7c0,0,0-0.1,0-0.1c0-0.1-0.1-0.2-0.1-0.3
		c0-0.1-0.1-0.1-0.1-0.2c0-0.1-0.1-0.1-0.1-0.2c-0.1-0.2-0.2-0.3-0.4-0.4c0,0,0-0.1-0.1-0.1c-0.2-0.1-0.3-0.3-0.5-0.4
		c-0.1,0-0.1,0-0.2-0.1c-0.2-0.1-0.3-0.1-0.5-0.2c0,0-0.1,0-0.1,0c0,0,0,0-0.1,0c-0.2,0-0.4,0-0.6,0c-0.1,0-0.1,0-0.2,0
		c-0.2,0-0.3,0.1-0.5,0.1c-0.1,0-0.1,0.1-0.2,0.1c0,0-0.1,0-0.1,0.1L174,10c-0.2,0.1-0.3,0.2-0.5,0.3l-42.9,33.4h-27.5h-0.3H75.3
		L32.4,10.3c-0.1-0.1-0.3-0.2-0.5-0.3L14.6,1.3c-0.1,0-0.1,0-0.2-0.1c-0.1,0-0.1,0-0.2-0.1c-0.2-0.1-0.4-0.1-0.5-0.1
		c0,0-0.1,0-0.1,0c-0.2,0-0.4,0-0.7,0c0,0,0,0-0.1,0c0,0-0.1,0-0.1,0c-0.2,0-0.3,0.1-0.5,0.2c0,0-0.1,0-0.1,0.1
		c-0.2,0.1-0.4,0.2-0.5,0.4c0,0,0,0-0.1,0.1c-0.1,0.1-0.3,0.3-0.4,0.4c0,0.1-0.1,0.1-0.1,0.2C11,2.4,11,2.5,11,2.5
		c-0.1,0.1-0.1,0.2-0.1,0.3c0,0,0,0.1,0,0.1L2.6,29.7c0,0,0,0,0,0c-0.1,0.3-0.1,0.5-0.1,0.8c0,0.1,0,0.1,0,0.1
		c0,0.2,0.1,0.5,0.1,0.7l11.7,33.5L2.5,110c0,0,0,0.1,0,0.1c0,0.1,0,0.2,0,0.3c0,0.1,0,0.1,0,0.2c0,0.1,0,0.2,0,0.3
		c0,0.1,0,0.1,0,0.2l0,0c0,0,9.4,43.1,10,46c0.3,1.3,0.9,4.1,50.1,32.8l13.7,16.6c0.4,0.4,0.9,0.8,1.4,0.9l24,6.1
		c0.3,0.1,0.7,0.2,1,0.2c0,0,0.1,0,0.1,0c0,0,0.1,0,0.1,0c0.4,0,0.7-0.1,1-0.2l24-6.1c0.6-0.1,1.1-0.5,1.4-0.9l13.7-16.6
		c49.2-28.8,49.9-31.5,50.1-32.8c0.7-2.9,10-46,10-46l0,0c0-0.1,0-0.1,0-0.2C203.5,111,203.5,110.9,203.5,110.7z M118.9,173.8
		l17.2,13.6l-16.9,6.8l-12.2-8.2L118.9,173.8z M132.6,127.1l10.1-10.1l12.7-0.8l-9.4,15.6l-15.4,3L132.6,127.1z M129.1,140.6
		l19.1-3.7c0.8-0.1,1.4-0.6,1.8-1.3l12-19.8l34.4-2.1l-15.4,31.6l-41.4,22.1h-17.3L129.1,140.6z M160.2,110.5
		C160.2,110.5,160.2,110.5,160.2,110.5l-18.9,1.1c-0.7,0-1.3,0.3-1.8,0.8l-4.2,4.3L148.7,65l38,2.3l10.7,40.9L160.2,110.5z
		 M186.9,61.9L155.7,60l40.1-23.5L186.9,61.9z M157.6,52.6l33.9-43.2l6.1,19.7L157.6,52.6z M72.7,48.5c0.5,0.4,1.1,0.6,1.7,0.6h28.4
		h0.3h28.4c0.6,0,1.2-0.2,1.7-0.6l43.4-33.8l6.3-3.2l-38.4,48.9c0,0,0,0,0,0c-0.1,0.1-0.2,0.3-0.3,0.5c0,0,0,0,0,0.1
		c0,0.1-0.1,0.2-0.1,0.2c0,0,0,0.1,0,0.1c0,0,0,0.1,0,0.1c0,0,0,0,0,0l-27.8,107.3L103,182.5l-13.2-13.7L61.9,61.5c0,0,0,0,0,0
		c0,0,0-0.1,0-0.1c0,0,0-0.1,0-0.1c0-0.1,0-0.1-0.1-0.2c0,0,0-0.1,0-0.1c-0.1-0.2-0.2-0.3-0.3-0.5c0,0,0,0,0,0L23,11.6l6.3,3.2
		L72.7,48.5z M75.3,134.8l-15.4-3l-9.4-15.6l12.7,0.8l10.1,10.1L75.3,134.8z M44,115.8l12,19.8c0.4,0.7,1,1.1,1.8,1.3l19.1,3.7
		l7,26.9H66.4l-41.4-22.1L9.6,113.7L44,115.8z M87,173.8L98.9,186l-12.2,8.2l-16.9-6.8L87,173.8z M19,61.9l-8.9-25.4L50.2,60
		L19,61.9z M14.4,9.5l33.9,43.2l-40-23.4L14.4,9.5z M19.3,67.3l38-2.3l13.4,51.7l-4.2-4.3c-0.5-0.5-1.1-0.8-1.8-0.8l-18.9-1.1
		c0,0,0,0,0,0l-37.1-2.2L19.3,67.3z M12.6,132.1l8,16.4c0.2,0.5,0.7,0.9,1.2,1.2l42.8,22.9c0.4,0.2,0.8,0.3,1.3,0.3h13.7l-15.2,12
		c-20.8-12.2-43.4-26.1-46.5-29.2C17.1,152.9,14.8,142.3,12.6,132.1z M125.9,202.6l-23,5.8l-23-5.8l-6.6-8l12.6,5.1
		c0.3,0.1,0.7,0.2,1,0.2c0.5,0,1.1-0.2,1.5-0.5l14.5-9.7l14.5,9.7c0.5,0.3,1,0.5,1.5,0.5c0.3,0,0.7-0.1,1-0.2l12.6-5.1L125.9,202.6z
		 M188.2,155.6c-3.1,3.1-25.7,17-46.5,29.2l-15.2-12h13.7c0.4,0,0.9-0.1,1.3-0.3l42.8-22.9c0.5-0.3,0.9-0.7,1.2-1.2l8-16.4
		C191.1,142.3,188.8,152.9,188.2,155.6z" />
</svg>